<?xml version="1.0" encoding="iso-8859-1"?>
<!-- Generator: Adobe Illustrator 19.0.0, SVG Export Plug-In . SVG Version: 6.00 Build 0)  -->
<svg version="1.1" id="Capa_1" xmlns="http://www.w3.org/2000/svg" xmlns:xlink="http://www.w3.org/1999/xlink" x="0px" y="0px"
	 viewBox="0 0 512.001 512.001" style="enable-background:new 0 0 512.001 512.001;" xml:space="preserve">
<path style="fill:#A24F3D;" d="M166.675,387.752L51.177,503.25c-11.667,11.667-30.759,11.667-42.426,0s-11.667-30.759,0-42.426
	l115.498-115.498L166.675,387.752z"/>
<path style="fill:#8B432D;" d="M166.675,387.752L51.177,503.25c-11.667,11.667-30.759,11.667-42.426,0l136.711-136.711
	L166.675,387.752z"/>
<path style="fill:#FE91C2;" d="M481.267,306.505c37.548-37.548,40.729-96.732,9.333-137.886
	c31.396-41.154,28.215-100.338-9.333-137.886S384.535-9.996,343.381,21.4C302.227-9.996,243.043-6.815,205.495,30.733
	c-15.274,15.274-25.244,34.576-28.85,56.003c-21.427,3.606-40.941,13.788-56.003,28.85c-37.548,37.548-40.729,96.732-9.334,137.887
	c-31.395,41.152-28.214,100.337,9.334,137.885s96.732,40.729,137.885,9.334c41.155,31.395,100.339,28.214,137.887-9.334
	c15.062-15.062,25.244-34.576,28.85-56.003C446.69,331.749,465.993,321.779,481.267,306.505z"/>
<g>
	<path style="fill:#FE73B1;" d="M425.264,335.355c-3.606,21.427-13.788,40.941-28.85,56.003
		c-37.548,37.548-96.732,40.729-137.887,9.334c-41.152,31.395-100.337,28.214-137.885-9.334L481.267,30.733
		c37.548,37.548,40.729,96.732,9.333,137.886c31.396,41.154,28.215,100.338-9.333,137.886
		C465.993,321.779,446.69,331.749,425.264,335.355z"/>
	<path style="fill:#FE73B1;" d="M239.139,115.606c-2.714-2.714-4.392-6.463-4.392-10.607c0-12.036,4.671-23.337,13.155-31.82
		c8.494-8.494,19.794-13.165,31.83-13.165c24.031,0,44.974,20.944,44.974,44.974c0,8.286-6.712,14.998-14.998,14.998
		s-14.998-6.712-14.998-14.998c-0.021-8.017-6.961-14.957-14.978-14.978c-4.019,0-7.789,1.554-10.617,4.381
		c-2.817,2.817-4.371,6.588-4.371,10.607c0,8.286-6.712,14.998-14.998,14.998C245.603,119.997,241.853,118.319,239.139,115.606z"/>
</g>
<path style="fill:#FE52A2;" d="M290.328,348.951c-8.483-8.483-13.155-19.784-13.155-31.82c0-8.286,6.712-14.998,14.998-14.998
	s14.998,6.712,14.998,14.998c0,8.038,6.94,14.978,14.978,14.978c4.019,0,7.789-1.554,10.607-4.371
	c2.828-2.828,4.381-6.598,4.381-10.617c0-8.286,6.712-14.998,14.998-14.998s14.998,6.712,14.998,14.998
	c0,12.036-4.671,23.337-13.165,31.83c-8.483,8.483-19.784,13.155-31.82,13.155C310.112,362.105,298.812,357.434,290.328,348.951z"/>
<g>
</g>
<g>
</g>
<g>
</g>
<g>
</g>
<g>
</g>
<g>
</g>
<g>
</g>
<g>
</g>
<g>
</g>
<g>
</g>
<g>
</g>
<g>
</g>
<g>
</g>
<g>
</g>
<g>
</g>
</svg>
